<svg width="30" height="29" viewBox="0 0 30 29" fill="none" xmlns="http://www.w3.org/2000/svg">
<path d="M25.6055 0.796875H4.39453C1.97159 0.796875 0 2.61475 0 4.84879V24.4061C0 26.6402 1.97159 28.458 4.39453 28.458H25.6055C28.0284 28.458 30 26.6402 30 24.4061V4.84879C30 2.61475 28.0284 0.796875 25.6055 0.796875ZM10.6055 22.7313H7.08984V11.3859H10.6055V22.7313ZM10.6055 9.76513H7.08984V6.52359H10.6055V9.76513ZM22.9102 22.7313H19.3945V16.2482C19.3945 15.3547 18.6058 14.6275 17.6367 14.6275C16.6676 14.6275 15.8789 15.3547 15.8789 16.2482V22.7313H12.3633V11.3859H15.8789V11.9969C16.7999 11.7329 17.3982 11.3859 18.5156 11.3859C20.8999 11.3882 22.9102 13.3604 22.9102 15.6911V22.7313Z" fill="#198C36"/>
</svg>
