<svg width="25" height="26" viewBox="0 0 25 26" fill="none" xmlns="http://www.w3.org/2000/svg">
<path d="M21.3379 0.796875H3.66211C1.64299 0.796875 0 2.43987 0 4.45899V22.1348C0 24.1539 1.64299 25.7969 3.66211 25.7969H21.3379C23.357 25.7969 25 24.1539 25 22.1348V4.45899C25 2.43987 23.357 0.796875 21.3379 0.796875ZM12.5488 19.8399C8.91399 19.8399 5.95703 16.8829 5.95703 13.2481C5.95703 9.61321 8.91399 6.65625 12.5488 6.65625C16.1837 6.65625 19.1406 9.61321 19.1406 13.2481C19.1406 16.8829 16.1837 19.8399 12.5488 19.8399ZM19.873 8.1211C18.6615 8.1211 17.6758 7.13538 17.6758 5.92382C17.6758 4.71228 18.6615 3.72656 19.873 3.72656C21.0846 3.72656 22.0703 4.71228 22.0703 5.92382C22.0703 7.13538 21.0846 8.1211 19.873 8.1211Z" fill="#198C36"/>
</svg>
