<svg width="30" height="23" viewBox="0 0 30 23" fill="none" xmlns="http://www.w3.org/2000/svg">
<path d="M30 3.0508C28.8844 3.50202 27.6956 3.80111 26.4562 3.94633C27.7312 3.24442 28.7044 2.14144 29.1619 0.811967C27.9731 1.46547 26.6606 1.92706 25.2619 2.18466C24.1331 1.07648 22.5244 0.390137 20.7694 0.390137C17.3644 0.390137 14.6231 2.93842 14.6231 6.0624C14.6231 6.5119 14.6644 6.9441 14.7656 7.35556C9.6525 7.12563 5.12813 4.86606 2.08875 1.42398C1.55812 2.27283 1.24688 3.24442 1.24688 4.29036C1.24688 6.2543 2.34375 7.99518 3.97875 9.00308C2.99062 8.98588 2.02125 8.72128 1.2 8.30468C1.2 8.32198 1.2 8.34448 1.2 8.36688C1.2 11.1227 3.33187 13.4116 6.1275 13.9389C5.62687 14.0651 5.08125 14.1256 4.515 14.1256C4.12125 14.1256 3.72375 14.1049 3.35062 14.0288C4.1475 16.2746 6.40875 17.9256 9.0975 17.9792C7.005 19.4884 4.34812 20.3978 1.47188 20.3978C0.9675 20.3978 0.48375 20.3771 0 20.32C2.72438 21.9399 5.95312 22.8648 9.435 22.8648C20.7525 22.8648 26.94 14.2207 26.94 6.728C26.94 6.47732 26.9306 6.23529 26.9175 5.99498C28.1381 5.19626 29.1637 4.19873 30 3.0508Z" fill="#198C36"/>
</svg>
